<svg xmlns="http://www.w3.org/2000/svg" viewBox="0 0 455.95 270.31"><defs><style>.cls-1{fill:#434343;}.cls-1,.cls-7{stroke:#000;stroke-miterlimit:10;}.cls-2{fill:none;}.cls-3{font-size:65.41px;font-family:ColonnaMT, Colonna MT;}.cls-4{letter-spacing:-0.01em;}.cls-5{letter-spacing:-0.18em;}.cls-6{font-size:29.07px;font-family:CenturyGothic, Century Gothic;letter-spacing:0em;}.cls-7{fill:#ed1c24;}</style></defs><title>Recurso 4</title><g id="Capa_2" data-name="Capa 2"><g id="Capa_1-2" data-name="Capa 1"><path class="cls-1" d="M170.23,70.07l16-9.18L153.74,4.46,152.31,2A31.34,31.34,0,0,0,145,26.09l24,44.58Z"/><rect class="cls-1" x="182.8" y="61.48" width="15.47" height="41.25" transform="translate(-15.56 105.94) rotate(-29.91)"/><path class="cls-1" d="M219.86,125,252.31,186c1.52,2.87-1,4.29-2.7,1.52L197.31,102l6.7-3.86Z"/><rect class="cls-1" x="234.37" y="60.85" width="15.47" height="41.25" transform="translate(71.64 -108.77) rotate(29.54)"/><path class="cls-1" d="M220.11,128.51l-36.1,59c-1.7,2.77-4.21,1.32-2.68-1.55l47.08-88.53,6.73,3.81Z"/><path class="cls-1" d="M268,1.07,252.25,31.52,251,36.9c2.74,7,6.37,10,9.13,11.37,6.38,3.24,16.35,2.38,16.35,2.38h0l2.25-.55L298,17.32c-1-8.06-6.88-3.53-6.88-3.53L280.24,34c-7,1.83-3.2-4.66-3.2-4.66l10-20.31a4.1,4.1,0,0,0-7.72-1L269,28.32c-6.89,4.85-4.81-4.65-4.81-4.65L275,4.89C274.9-1.68,268,1.07,268,1.07Z"/><rect class="cls-1" x="252.67" y="46.69" width="8.1" height="18.02" transform="translate(60.83 -119.33) rotate(29.54)"/><rect class="cls-2" x="225.22" y="107.62" width="78.43" height="96.8"/><text class="cls-3" transform="translate(20.47 247.61)">FUSIÓN</text><text class="cls-3" transform="translate(249.98 247.96)">G<tspan class="cls-4" x="38.83" y="0">U</tspan><tspan class="cls-5" x="84.31" y="0">A</tspan><tspan x="117.11" y="0">Y</tspan></text><text class="cls-6" transform="translate(90.51 130.03)">URBAN</text><text class="cls-6" transform="translate(245.23 130.03)">FOOD</text><path class="cls-7" d="M236.9,172.64c0,11-9.08,19.44-20,20s-20-8.94-20-20a20,20,0,0,1,40,0Z"/><path class="cls-7" d="M236.9,172.64h0Z"/><line class="cls-7" x1="196.94" y1="172.64" x2="216.92" y2="192.62"/><path d="M199.16,179.14h.08l-.4.05a.74.74,0,0,1,.21,0l-.4-.06.22.06-.36-.15a1,1,0,0,1,.25.15l-.3-.23a.85.85,0,0,1,.19.19l-.24-.31a.84.84,0,0,1,.14.24l-.15-.36a1.4,1.4,0,0,1,.1.35l-.06-.4a1.68,1.68,0,0,1,0,.5l.06-.4c0,.12-.05.24-.08.36a1.22,1.22,0,0,0,0,.6,1.12,1.12,0,0,0,.18.56,1.06,1.06,0,0,0,.39.42,1.14,1.14,0,0,0,.51.27,1.49,1.49,0,0,0,1.15-.15,1.56,1.56,0,0,0,.69-.9,5,5,0,0,0,.11-.56,3.64,3.64,0,0,0,0-.57,4.86,4.86,0,0,0-.07-.55c0-.07,0-.12,0-.18a3.22,3.22,0,0,0-.21-.51c0-.05,0-.1-.08-.16a2.22,2.22,0,0,0-.44-.53,2.7,2.7,0,0,0-.54-.4,2.87,2.87,0,0,0-.64-.23,3.92,3.92,0,0,0-.52-.06,3.43,3.43,0,0,0-.56.08,1.15,1.15,0,0,0-.51.27,1,1,0,0,0-.38.42,1.12,1.12,0,0,0-.18.56,1.08,1.08,0,0,0,0,.59,1.53,1.53,0,0,0,.69.9,1.61,1.61,0,0,0,1.16.15Z"/><path d="M199.13,180.5a1.5,1.5,0,0,0,0-3,1.5,1.5,0,0,0,0,3Z"/><path d="M199.57,182.15a1.5,1.5,0,0,0,0-3,1.5,1.5,0,0,0,0,3Z"/><path d="M198.61,182.06l.9,1.53a4.26,4.26,0,0,0,1.42,1.53,1.5,1.5,0,0,0,2-.53,1.47,1.47,0,0,0,.15-1.16,1.58,1.58,0,0,0-.69-.9l-.16-.11.3.24a2.34,2.34,0,0,1-.38-.39l.23.3c-.22-.29-.39-.61-.58-.92l-.65-1.11a1.58,1.58,0,0,0-.9-.68,1.49,1.49,0,0,0-1.15.15,1.47,1.47,0,0,0-.69.89,1.56,1.56,0,0,0,.15,1.16Z"/><path d="M200.65,183.23a1.92,1.92,0,0,0,0,1.94,5.44,5.44,0,0,0,.67.76l-.24-.3a.59.59,0,0,1,.1.17l-.15-.36a4.26,4.26,0,0,0,.26.62,2.59,2.59,0,0,0,.39.53l.53.53,1.14,1.15a1.56,1.56,0,0,0,1.06.44,1.54,1.54,0,0,0,1.06-.44,1.47,1.47,0,0,0,.44-1.06,1.54,1.54,0,0,0-.44-1.06l-.91-.92a10.07,10.07,0,0,1-.85-.88l.23.31a1.62,1.62,0,0,1-.1-.18l.16.36c-.08-.18-.15-.37-.23-.55a2.1,2.1,0,0,0-.34-.5c-.12-.13-.26-.23-.37-.36l.24.3a.86.86,0,0,1-.1-.16l.15.36,0-.14.06.4a.11.11,0,0,1,0-.08l-.05.4a.29.29,0,0,1,0-.09l-.15.36,0,0a1.5,1.5,0,0,0,.16-1.15,1.56,1.56,0,0,0-.69-.9,1.54,1.54,0,0,0-2.06.54Z"/><path d="M208.84,188.48c-.41-.38-.81-.78-1.25-1.13a6.47,6.47,0,0,0-.91-.64,4,4,0,0,0-1.05-.39,1.66,1.66,0,0,0-1.16.15,1.53,1.53,0,0,0-.69.89,1.51,1.51,0,0,0,.15,1.16,1.49,1.49,0,0,0,.9.69,2.54,2.54,0,0,1,.47.14l-.36-.15a3.44,3.44,0,0,1,.78.47l-.3-.24c.46.36.87.78,1.3,1.17a1.5,1.5,0,0,0,2.56-1.06,1.56,1.56,0,0,0-.44-1.06Z"/><path d="M209,191.06l.08,0-.39.05a1.16,1.16,0,0,1,.32,0l-.4-.06a1.4,1.4,0,0,1,.35.1l-.35-.15a1.35,1.35,0,0,1,.33.19l-.3-.23a1.28,1.28,0,0,1,.26.26l-.24-.31a1.61,1.61,0,0,1,.17.28l-.15-.36a1.09,1.09,0,0,1,.05.17,1.26,1.26,0,0,0,.27.51,1.31,1.31,0,0,0,.42.39,1.22,1.22,0,0,0,.56.17,1.11,1.11,0,0,0,.6,0,1.54,1.54,0,0,0,.89-.69,1.62,1.62,0,0,0,.16-1.16,2.92,2.92,0,0,0-1.3-1.68,3.72,3.72,0,0,0-.57-.27l-.27-.08a4.52,4.52,0,0,0-.63-.08,3.72,3.72,0,0,0-.66.08,1.26,1.26,0,0,0-.51.27,1.31,1.31,0,0,0-.39.42,1.22,1.22,0,0,0-.17.56,1.11,1.11,0,0,0,0,.6,1.54,1.54,0,0,0,.69.89l.36.16a1.55,1.55,0,0,0,.8,0Z"/><path d="M209.33,191.49a1.5,1.5,0,0,0,0-3,1.5,1.5,0,0,0,0,3Z"/><path d="M211.07,192l.22,0-.4-.05a5.86,5.86,0,0,1,1.49.4l-.36-.15a6.4,6.4,0,0,1,.82.43A1.5,1.5,0,0,0,215,191a1.63,1.63,0,0,0-.69-.9,7.4,7.4,0,0,0-1.56-.73,7.26,7.26,0,0,0-1.72-.33,1.51,1.51,0,0,0-1.06.43,1.51,1.51,0,0,0,0,2.13l.31.23a1.51,1.51,0,0,0,.75.21Z"/><path d="M199.43,178.24a2.51,2.51,0,0,0,.37-.27.6.6,0,0,0,.08-.08,1.83,1.83,0,0,0,.45-.8,1.9,1.9,0,0,0-.2-1.44,2.2,2.2,0,0,0-.49-.56,1.8,1.8,0,0,1-.29-.26l.23.3-.07-.12.15.36a1.42,1.42,0,0,1,0-.22l.06.4a8.64,8.64,0,0,0-.34-1.74,1.5,1.5,0,0,0-1.84-1.05,1.56,1.56,0,0,0-.9.69,1.52,1.52,0,0,0-.15,1.16,5.45,5.45,0,0,1,.25,1.06l-.06-.4a7.17,7.17,0,0,0,.11.81,2.3,2.3,0,0,0,.52.91c.14.15.34.26.48.42l-.24-.3a.27.27,0,0,1,.06.1l-.15-.36a.27.27,0,0,1,0,.12l-.05-.4v.08l.05-.4a.23.23,0,0,1,0,.11l.15-.36,0,.07.23-.3-.08.08.3-.24-.06,0a1.5,1.5,0,0,0-.54,2,1.52,1.52,0,0,0,.9.69,1.65,1.65,0,0,0,1.15-.15Z"/><path d="M198.08,175.44a1.5,1.5,0,0,0,0-3,1.5,1.5,0,0,0,0,3Z"/><path d="M215.27,192.7l.7-.31-2.21-1.7a2.11,2.11,0,0,0,2.47,2.51A3.88,3.88,0,0,0,217,193l.29-.08c0,.1-.36-.09-.12,0a3.81,3.81,0,0,0,1.71.18,17.91,17.91,0,0,0,3.22-.75A7.8,7.8,0,0,0,225,191a1.5,1.5,0,0,0,0-2.12,1.55,1.55,0,0,0-2.12,0c.18-.14-.21.11-.26.13s-.09.05,0,0l-.28.1c-.29.1-.59.18-.89.26-.74.21-1.48.44-2.22.61a2.87,2.87,0,0,1-.78.1c-.19,0-.22,0-.1,0l-.24-.06a4.1,4.1,0,0,0-.78-.13,3.07,3.07,0,0,0-1.13.17,4.28,4.28,0,0,1-.43.14.76.76,0,0,1,.26,0c.45.49.61.59.46.3l.21.76,0,.17a1.51,1.51,0,0,0-2.21-1.69l-.69.31a1.5,1.5,0,0,0-.54,2,1.53,1.53,0,0,0,2.05.54Z"/><path d="M235.76,175.09a1.5,1.5,0,0,0,0-3,1.5,1.5,0,0,0,0,3Z"/><path d="M234.28,173.6c.21,2.19-.73,4.14-1.62,6.09a14.7,14.7,0,0,1-3.27,4.94,1.5,1.5,0,0,0,2.12,2.12,16.84,16.84,0,0,0,3.82-5.73c1.06-2.36,2.2-4.76,1.95-7.42a1.54,1.54,0,0,0-1.5-1.5,1.52,1.52,0,0,0-1.5,1.5Z"/><path d="M229.46,184.59q-2.51,1.78-5.11,3.43a1.51,1.51,0,0,0-.54,2,1.53,1.53,0,0,0,2.05.54c1.74-1.09,3.44-2.24,5.11-3.43a1.59,1.59,0,0,0,.69-.9,1.5,1.5,0,0,0-2.2-1.69Z"/><path d="M233.13,173.23l0,.16.69-.9c.52-.09.49-.12-.08-.09h-2.26l-2.82,0c-2.08,0-4.15-.13-6.23-.13-4.45,0-8.9.49-13.35.15-1.93-.15-1.92,2.85,0,3,5,.39,10.05-.27,15.08-.12q3.21.09,6.42.12c1.68,0,4.82.74,5.5-1.35.59-1.84-2.3-2.63-2.9-.79Z"/><path d="M207.5,172.6a.93.93,0,0,1-.87,0l.66,2.51-.11,0-.4-3a21.11,21.11,0,0,1-3.64-.08l-3.71-.16a1.51,1.51,0,0,0-1.3,2.26,7.49,7.49,0,0,1,.39,2.6,1.53,1.53,0,0,0,2.57,1.06,7.05,7.05,0,0,0,1.68-2.8l-2.74.36c-.05-.39-.08-.47-.09-.22a1,1,0,0,0,0,.35,1.79,1.79,0,0,0,.32.93,1.89,1.89,0,0,0,1.55.8c1.75.14,3.44-.65,5.2-.41a39.39,39.39,0,0,1,5.13,1.32l2.59.76a8.69,8.69,0,0,1,2.51.88l-.69-.89c.14-.52.12-.63-.09-.33a3.82,3.82,0,0,1-.27.32,8.5,8.5,0,0,1-.73.74c-.35.34-1.14,1.2-1.69,1.17a.61.61,0,0,1-.53-.91,1.88,1.88,0,0,1,.69-.65c.34-.24,1.13-.35.21-.28l-1.06-.44c.15.28.27.24.35-.14l2.12,2.12a1.55,1.55,0,0,1,.64-.52l-2.21-.89c.17.45-.37.71-.72.95l2.05,2.05,1.39-2.71a1.5,1.5,0,0,0-2.35-1.82c-1.49,1.41-3.14,2-2.77,4.45.25,1.6,2.45,1.23,2.9,0-.22.19-.1.2.34,0h2.41c1.14,0,2.28,0,3.41,0,2.28-.06,4.55-.17,6.82-.31v-3c-4,.26-7.92.35-11.88.25-2,0-1.88,2.8,0,3,3,.33,5.95-.81,8.78-1.63a1.52,1.52,0,0,0,.36-2.74,4.68,4.68,0,0,1-.82-.58l-.66,2.5a3.42,3.42,0,0,1,1.55-.25,5.58,5.58,0,0,1,.81.09c.37.12.45.12.23,0A2,2,0,0,1,226,182a8.29,8.29,0,0,1-5.71,2.87,46.91,46.91,0,0,1-7.68-.13c-2.06-.19-4.26-.36-5.87-1.82a6.17,6.17,0,0,1-1.56-2.15c-.13-.31-.49-1.11-.27-1.44s.81-.27,1-.32c1.06-.23,2.46-.61,3.43,0a10.45,10.45,0,0,1,1.37,1c.22.18.42.36.62.55s.28.27.11.1c-.4.91-2.52.65-3.23.52a15.45,15.45,0,0,1-1.65-.45l-.81-.27c.22.06.24-.05.07-.33-.13-1,.68-.87,1.47-.72a3.62,3.62,0,0,1,1.62.6,2.16,2.16,0,0,1,.49.51c.11.43.2.4.27-.08l.89-.69a10.37,10.37,0,0,1-1.12.13c-.94.18.52-.16,0,.46l-1.06.44-.55-1,.9-.69a19.55,19.55,0,0,1-2.66.35l1.5,1.5,0-2.25-2.8.76a4.43,4.43,0,0,0,1.58,1.43c1.71.88,3.23-1.7,1.51-2.59a1.11,1.11,0,0,1-.5-.35,1.51,1.51,0,0,0-2.79.75l0,2.25a1.51,1.51,0,0,0,1.5,1.5c1.57-.19,4.73,0,4.67-2.25,0-1.68-2.1-3.26-3.5-1.84-1.25,1.28-.91,3.95.9,4.53a6.3,6.3,0,0,0,2.52,0,2,2,0,0,0,1.86-1.39c.46-1.77-1.18-3.58-2.63-4.29s-3.68-1.17-5.26-.4-2,2.55-1.68,4.21c.38,2.18,2.35,2.67,4.27,3.1a7.28,7.28,0,0,0,5.65-.66,3.06,3.06,0,0,0,1-4.5,9.86,9.86,0,0,0-4.18-3,7.54,7.54,0,0,0-3.1,0,8.81,8.81,0,0,0-2.91.71c-3.72,1.9-1,6.93,1.33,8.8,3.13,2.55,7.84,2.52,11.69,2.57,2.3,0,4.89.11,7.06-.78a11.75,11.75,0,0,0,4.9-3.77,5,5,0,0,0-.36-5.73c-1.21-1.68-4.09-1.8-5.88-1.09a1.52,1.52,0,0,0-.66,2.51,8.22,8.22,0,0,0,1.43,1.05l.35-2.74c-2.58.75-5.25,1.82-8,1.52v3c4,.1,7.93,0,11.88-.25,1.92-.13,1.93-3.13,0-3-3,.19-6,.32-9,.35-2.43,0-5.83-.68-6.87,2.17h2.9a22.35,22.35,0,0,1,2-1.53l-2.36-1.82-1.39,2.72c-.63,1.23.74,3,2.06,2.05s2.8-2.45,2.09-4.34a1.53,1.53,0,0,0-2.2-.9,3.63,3.63,0,0,0-1.24,1c-1.17,1.48.81,3.6,2.12,2.12a2.87,2.87,0,0,0-.65-4.34c-1.41-.76-3.44.94-4.16,2a3.44,3.44,0,0,0,.64,4.64c1.67,1.42,3.48,1.07,5.1-.17,1.13-.86,3.26-2.5,3.08-4.13-.21-2-3.27-2.3-4.73-2.74-2.16-.64-4.34-1.33-6.55-1.78a9.5,9.5,0,0,0-3.1-.19c-1,.11-2.27.61-3.23.4l.9.69c.05.4.08.47.09.23a1.45,1.45,0,0,0,0-.36,2.15,2.15,0,0,0-.32-.94,1.52,1.52,0,0,0-2.74.36,3.63,3.63,0,0,1-.92,1.48l2.56,1.06c-.15-1.28-.06-3-.8-4.11l-1.29,2.25c2.67.11,5.5.51,8.15.13,1.66-.23,1.28-3.16-.4-2.94a3.51,3.51,0,0,0-2,.86,1.51,1.51,0,0,0,.66,2.5,3.87,3.87,0,0,0,3.19-.25c1.73-.85.21-3.44-1.52-2.59Z"/><path d="M207.11,184.51a1.5,1.5,0,0,0,0-3,1.5,1.5,0,0,0,0,3Z"/><path d="M207.84,182.87a4.59,4.59,0,0,1-.51.1l.4-.05a5.15,5.15,0,0,1-.88,0l1.07,2.57a.38.38,0,0,1,.09-.09l-.3.23a1.18,1.18,0,0,1,.19-.11l-.36.15.26-.07-.4.06h.32l-.4-.06a2.11,2.11,0,0,1,.43.12l-.36-.15a7.69,7.69,0,0,1,.87.52c.14.08.28.16.43.23a3.24,3.24,0,0,0,.81.28,1.22,1.22,0,0,0,.6,0,1.12,1.12,0,0,0,.56-.18,1.52,1.52,0,0,0,.69-.9,1.54,1.54,0,0,0-.15-1.15,1.42,1.42,0,0,0-.9-.69,1.48,1.48,0,0,1-.41-.12l.36.16a5.48,5.48,0,0,1-.74-.43,5.25,5.25,0,0,0-1.06-.53,2.6,2.6,0,0,0-2.66.57,1.51,1.51,0,0,0,1.06,2.56,6.34,6.34,0,0,0,1.79-.19,1.51,1.51,0,0,0,.9-.69,1.49,1.49,0,0,0,.15-1.15,1.54,1.54,0,0,0-1.85-1Z"/><path d="M211.2,186.79c1.37-.21,1.66-1.81,2.72-2.48,1.36-.87.5-3.38-1.16-2.74-1.11.42-2.95.75-3.77,1.64s-.23,2.57.11,3.64a7.44,7.44,0,0,0,1.56,3.14c1,1,2.55.85,3.73,1.56s2.9-.78,2.05-2.05c-.64-.95-.95-2.37-1.88-3.08a2.12,2.12,0,0,0-2.82.18,1.51,1.51,0,0,0,1.46,2.51c1.33-.29,2.21-1.26,3.41-1.78A36.69,36.69,0,0,1,221.1,186c2.62-.74,5.57-1.34,7.4-3.54.55-.66.67-1.94-.3-2.36-1.25-.54-2.22-.15-3.48.22l-4.17,1.23L212.22,184l1.46,2.51a8.75,8.75,0,0,1,4.58-2.47c1.94-.36,3.9-.2,5.81-.75a1.51,1.51,0,0,0-.4-3q-3.75,0-7.51-.2l1.3,2.26.15-.2-.9.69a15.5,15.5,0,0,1,3.54-.21c1.14,0,2.28,0,3.43,0a51.09,51.09,0,0,0,7-.47,1.51,1.51,0,0,0,.66-2.51c-1.87-1.51-4.67-3.47-7.22-3a16.55,16.55,0,0,0-1.7.65,9.48,9.48,0,0,1-2.2.09l-4.92.13,1.06,2.56a8.8,8.8,0,0,1,6.23-2c2.13,0,5.07.45,6.93-.84a1.52,1.52,0,0,0,0-2.59c-1.18-.79-2.63-.56-4-.5-1.66.08-3.32.12-5,.15-3.3.05-6.82.29-10-.51a1.5,1.5,0,0,0-.79,2.89,42,42,0,0,0,6.51,2,22.58,22.58,0,0,0,6.21.9c1.94-.14,3.65-1.1,5.48-1.66a21.84,21.84,0,0,1,3.08-.72c1.19-.19,2.41-.15,3.58-.43l-1.84-1.85a7.39,7.39,0,0,1-2,4.36,10.09,10.09,0,0,0-2.8,3.59c-.61,1.57,1.49,2.27,2.5,1.46l3-2.39a1.54,1.54,0,0,0,.23-1.82,5.32,5.32,0,0,1,.16-3c.54-1.71-1.81-2.48-2.74-1.16a24,24,0,0,0-1.93,3.23c-.85,1.72,1.73,3.24,2.59,1.51.66-1.31,1.71-3.92.18-5-1.75-1.25-3.19,1.36-3.9,2.56l2.79.76c-.05-1,.09-2.13-.85-2.73a1.82,1.82,0,0,0-2.38.44c-1.32,1.4.79,3.52,2.12,2.12l.09,0h-1.51l.17.08-.69-.9a6,6,0,0,1,.05,1,1.52,1.52,0,0,0,2.8.76,9.93,9.93,0,0,1,.65-1l.26-.35c.39-.38.35-.41-.11-.07l-1.46-.39.14.14-.43-1.06a3.92,3.92,0,0,1-.51,2.19l2.59,1.51a24.49,24.49,0,0,1,1.93-3.22L231,176.34a8.12,8.12,0,0,0,.14,5.29l.24-1.81-3,2.39,2.51,1.46c.52-1.33,2.09-2.19,3-3.28a10.44,10.44,0,0,0,1.8-4.67,1.53,1.53,0,0,0-1.85-1.85c-1,.25-2.1.22-3.13.37a21.92,21.92,0,0,0-3.1.66c-1.68.48-3.35,1.5-5.11,1.68s-4-.48-5.86-.89a43.32,43.32,0,0,1-6.07-1.85l-.79,2.89a37.93,37.93,0,0,0,9.4.63c1.59,0,3.17,0,4.75-.09l2.38-.1c.53,0,1.28-.19,1.75.12V174.7c-.91.63-2.51.46-3.58.45a31.34,31.34,0,0,0-4.11.1,10.91,10.91,0,0,0-6.08,2.74,1.51,1.51,0,0,0,1.06,2.56l4-.1a17.38,17.38,0,0,0,3.95-.23c.46-.13.85-.44,1.3-.57a2.65,2.65,0,0,1,1.6.3,12.67,12.67,0,0,1,3.08,1.85l.66-2.5a58.06,58.06,0,0,1-8,.37c-1.3,0-2.59,0-3.89.1s-2.28.07-3.09,1.12.28,2.21,1.29,2.26q3.76.16,7.51.2l-.4-2.94c-2.13.61-4.4.34-6.54.92a11.68,11.68,0,0,0-5.17,3.07,1.51,1.51,0,0,0,1.46,2.5l7.17-2.11,3.47-1,1.86-.54.92-.28c.53,0,.61-.12.25-.25l-.31-2.35c-1.65,2-4.64,2.35-7,3a35.47,35.47,0,0,0-3.92,1.2c-1.06.44-1.94,1.39-3.07,1.64l1.46,2.5c-1.05-.27-1.39-.12-1,.47.08.19.16.38.26.57a9.43,9.43,0,0,0,.74,1.26L215.9,189a8.52,8.52,0,0,0-1.62-.75c-.5-.17-1.3-.15-1.64-.54a7.15,7.15,0,0,1-1.09-3.4l-.74,1.3a12.47,12.47,0,0,1,2.75-1.11l-1.15-2.74a5.94,5.94,0,0,0-2,1.92l-.17.29c-.23.34-.18.33.15,0-1.91.3-1.1,3.19.79,2.9Z"/><path d="M229.74,184.94a1.5,1.5,0,0,0,0-3,1.5,1.5,0,0,0,0,3Z"/><path d="M229.27,182.44c-.64.37-1.22.84-1.82,1.27a8.83,8.83,0,0,1-.91.59c-.17.1-.34.18-.51.27s.2-.08,0,0l-.31.12a13.22,13.22,0,0,0-4.23,2.74,1.5,1.5,0,0,0,1.46,2.5,17,17,0,0,0,2.25-.94,4.55,4.55,0,0,0,1-.78l.34-.36c0-.05.42-.4.16-.19.33-.26.7-.46,1-.75a5,5,0,0,0,.75-.92,10.77,10.77,0,0,0,.9-1.95,1.51,1.51,0,0,0-1.05-1.85,1.55,1.55,0,0,0-1.85,1.05c0,.15-.11.29-.17.44-.14.36.14-.28,0,.07a6.23,6.23,0,0,1-.39.72c0,.07-.09.13-.13.19.12-.15.12-.16,0,0a2.83,2.83,0,0,1-.25.24c.26-.23-.09.06-.16.1a5.67,5.67,0,0,0-.57.43,7,7,0,0,0-.61.61l-.25.26c-.13.11-.13.11,0,0l-.21.14-.33.16c.33-.16-.18.08-.24.1l-1,.38,1.46,2.51c.27-.26.55-.49.83-.74s-.18.13,0,0l.21-.15a5.25,5.25,0,0,1,.49-.33c.31-.2.63-.38,1-.55l.23-.11s.27-.12.12-.06.11,0,.13-.05l.31-.13A9.86,9.86,0,0,0,229,186.3c.6-.43,1.18-.89,1.83-1.27a1.51,1.51,0,0,0,.54-2.05,1.53,1.53,0,0,0-2.06-.54Z"/><path d="M224.19,185.88a4.16,4.16,0,0,1-1.92.31,16.09,16.09,0,0,0-2.59.23,11,11,0,0,1-4.59-.22,1.53,1.53,0,0,0-1.9,1.45,2.1,2.1,0,0,0,1,1.76c.2.13.59.18.73.34l-.25-.21c.07,0,.24.42.29.49a3.68,3.68,0,0,0,.49.63,2.62,2.62,0,0,0,1.49.7,9.47,9.47,0,0,0,2.85-.25c1-.17,1.94-.37,2.9-.61a1.52,1.52,0,0,0,1.05-1.84,1.53,1.53,0,0,0-1.85-1c-.74.18-1.49.35-2.24.49l-1,.18-.57.09-.29,0c.14,0,.15,0,0,0h-.37c-.31,0,0,0,.07.05s.22.33.05,0c-.08-.12-.14-.24-.21-.36a3,3,0,0,0-.9-1A2.74,2.74,0,0,0,216,187l-.31-.12c.32.09.49.35.5.79l-1.9,1.45a14.3,14.3,0,0,0,5.82.29,12.47,12.47,0,0,1,2.25-.2,6.91,6.91,0,0,0,2.63-.42,1.55,1.55,0,0,0,1-1.84,1.51,1.51,0,0,0-1.85-1.05Z"/><path d="M211.48,187.75c.4,0,.44.42.23,0a2.66,2.66,0,0,0-.35-.46,4.2,4.2,0,0,0-.78-.74,10.93,10.93,0,0,0-1.71-1,5.24,5.24,0,0,1-1.35-.91,12.68,12.68,0,0,1-1.1-1.51c-.75-1.06-1.72-1.86-1.89-3.18a5.47,5.47,0,0,1,0-1,6.53,6.53,0,0,0,.14-.77c.05-.17.06-.21,0-.13a.45.45,0,0,1-.2.21c-.06.11-.17,0,0,.05a2.65,2.65,0,0,0,.56,0c.24,0,.47,0,.71,0a1.5,1.5,0,0,0,0-3l-2.56,0a7.89,7.89,0,0,0-2.38.22,2.05,2.05,0,0,0-1.35,2.37,2.63,2.63,0,0,0,1.6,1.8,1.56,1.56,0,0,0,1.82-.23,5.13,5.13,0,0,0,.91-1.31,1.53,1.53,0,0,0-.39-1.94,1.5,1.5,0,0,0-2,.12L200,178.09a2,2,0,0,0-.61,2.49c.31.64.71,1.36,1.47,1.53,1,.23,1.63-.46,2.26-1.16l-2.51-1.46a4.57,4.57,0,0,0,.32,3.84,17.69,17.69,0,0,0,2.13,2.82,16.19,16.19,0,0,0,5.4,3.94,1.54,1.54,0,0,0,2-.54,1.51,1.51,0,0,0-.53-2.05,14.12,14.12,0,0,1-4.38-3,15.47,15.47,0,0,1-1.62-2,4,4,0,0,1-.64-1,2,2,0,0,1,.16-1.16,1.51,1.51,0,0,0-2.51-1.46,6.8,6.8,0,0,1-.43.54l1.15-.15-.11,0,.66.39c.2.18,0-.06-.1-.18l-.21-.4.21.76v-.11l-.21.76a14,14,0,0,1,1.63-1.82l-2.35-1.82a2.57,2.57,0,0,1-.44.71l1.82-.24a2.26,2.26,0,0,0-.39-.18c-.1-.07-.1-.06,0,.05a.65.65,0,0,1,.21.61l-.39.66c-.09.11-.44.06-.26.11a2.3,2.3,0,0,0,.45,0l1.22,0,2.31,0v-3c-1.16,0-2.25-.28-3.21.6a4.2,4.2,0,0,0-1,2.75,7,7,0,0,0,1.88,5.38c.59.68,1,1.47,1.6,2.18a6.72,6.72,0,0,0,2,1.65,10.75,10.75,0,0,1,1.84,1.08c.32.29.51.68.84,1a2.42,2.42,0,0,0,1.76.69,1.54,1.54,0,0,0,1.5-1.5,1.5,1.5,0,0,0-1.5-1.5Z"/></g></g></svg>